M48
; DRILL file {KiCad (5.1.9)-1} date 05/12/21 10:03:35
; FORMAT={-:-/ absolute / inch / decimal}
; #@! TF.CreationDate,2021-05-12T10:03:35-07:00
; #@! TF.GenerationSoftware,Kicad,Pcbnew,(5.1.9)-1
; #@! TF.FileFunction,Plated,1,2,PTH
FMAT,2
INCH
T1C0.0157
T2C0.0289
T3C0.0315
T4C0.0354
T5C0.0394
T6C0.0512
T7C0.0787
%
G90
G05
T1
X5.15Y-3.0
T2
X3.013Y-4.15
X3.35Y-4.15
T3
X3.25Y-2.4
X3.35Y-4.3016
X3.35Y-4.4
X3.55Y-2.4
X3.95Y-2.4
X4.25Y-2.4
X4.6Y-4.15
X4.6Y-4.35
X4.6Y-4.55
X4.65Y-2.4
X4.9Y-4.15
X4.9Y-4.35
X4.9Y-4.55
X4.95Y-2.4
X5.1Y-2.2
X5.4Y-2.2
T4
X3.35Y-2.25
X3.45Y-2.25
X4.05Y-2.25
X4.15Y-2.25
X4.75Y-2.25
X4.85Y-2.25
T5
X3.2Y-4.4
X3.2Y-4.5
X3.278Y-2.8
X3.3Y-3.5
X3.3Y-3.6
X3.3Y-3.7
X3.3Y-3.8
X3.522Y-2.8
X3.8Y-1.85
X3.8Y-1.95
X3.8Y-2.05
X3.8Y-2.15
X3.8Y-2.25
X3.8Y-2.35
X3.8Y-2.45
X3.8Y-2.55
X3.8Y-2.65
X3.8Y-2.75
X3.8Y-2.85
X3.8Y-2.95
X3.8Y-3.05
X3.8Y-3.15
X3.8Y-3.25
X3.8Y-3.35
X3.8Y-3.45
X3.8Y-3.55
X3.8Y-3.65
X3.8Y-3.75
X3.95Y-3.6
X4.0Y-4.0291
X4.0Y-4.6
X4.05Y-3.6
X4.0984Y-4.6
X4.1Y-2.678
X4.1Y-2.922
X4.15Y-3.6
X4.1969Y-4.0291
X4.1969Y-4.6
X4.25Y-3.6
X4.4Y-1.85
X4.4Y-1.95
X4.4Y-2.05
X4.4Y-2.15
X4.4Y-2.25
X4.4Y-2.35
X4.4Y-2.45
X4.4Y-2.55
X4.4Y-2.65
X4.4Y-2.75
X4.4Y-2.85
X4.4Y-2.95
X4.4Y-3.05
X4.4Y-3.15
X4.4Y-3.25
X4.4Y-3.35
X4.4Y-3.45
X4.4Y-3.55
X4.4Y-3.65
X4.4Y-3.75
X4.678Y-2.8
X4.9Y-2.0
X4.922Y-2.8
X5.0Y-2.0
X5.1Y-2.0
X5.1Y-2.35
X5.1Y-2.45
X5.2Y-2.0
X5.2Y-2.35
X5.2Y-2.45
X5.3Y-2.35
X5.3Y-2.45
X5.4Y-2.35
X5.4Y-2.45
T6
X3.15Y-2.7
X3.15Y-2.8969
X3.3173Y-2.672
X3.3213Y-2.928
X3.4787Y-2.672
X3.4787Y-2.928
X3.6421Y-2.7
X3.6421Y-2.8969
X3.972Y-2.7213
X3.972Y-2.8827
X4.0Y-2.5579
X4.0Y-3.05
X4.1969Y-2.5579
X4.1969Y-3.05
X4.228Y-2.7213
X4.228Y-2.8787
X4.55Y-2.7
X4.55Y-2.8969
X4.7173Y-2.672
X4.7213Y-2.928
X4.8787Y-2.672
X4.8787Y-2.928
X5.0421Y-2.7
X5.0421Y-2.8969
T7
G00X3.878Y-4.3146
M15
G01X3.878Y-4.2949
M16
G05
G00X4.3189Y-4.3146
M15
G01X4.3189Y-4.2949
M16
G05
T0
M30
